<svg xmlns="http://www.w3.org/2000/svg" xmlns:xlink="http://www.w3.org/1999/xlink" xmlns:serif="http://www.serif.com/" viewBox="0 0 32 40" version="1.1" xml:space="preserve" style="" x="0px" y="0px" fill-rule="evenodd" clip-rule="evenodd" stroke-linejoin="round" stroke-miterlimit="2"><g serif:id="Icon 32px"><path d="M29,10c0,-0.552 -0.448,-1 -1,-1l-18.997,0c-0.297,0 -0.578,0.132 -0.768,0.36l-4.996,6c-0.309,0.371 -0.309,0.909 -0,1.28l4.996,6c0.19,0.228 0.471,0.36 0.768,0.36l18.997,0c0.552,0 1,-0.448 1,-1l0,-12Zm-19.528,1l-4.163,5l4.163,5l17.528,0l0,-10l-17.528,0Z"/><path d="M19.293,13.293l-4,4c-0.39,0.39 -0.39,1.024 -0,1.414c0.39,0.39 1.024,0.39 1.414,0l4,-4c0.39,-0.39 0.39,-1.024 0,-1.414c-0.39,-0.39 -1.024,-0.39 -1.414,-0Z"/><path d="M15.293,14.707l4,4c0.39,0.39 1.024,0.39 1.414,0c0.39,-0.39 0.39,-1.024 0,-1.414l-4,-4c-0.39,-0.39 -1.024,-0.39 -1.414,-0c-0.39,0.39 -0.39,1.024 -0,1.414Z"/></g><text x="0" y="47" fill="#000000" font-size="5px" font-weight="bold" font-family="'Helvetica Neue', Helvetica, Arial-Unicode, Arial, Sans-serif">Created by Rolas Design</text><text x="0" y="52" fill="#000000" font-size="5px" font-weight="bold" font-family="'Helvetica Neue', Helvetica, Arial-Unicode, Arial, Sans-serif">from the Noun Project</text></svg>